<svg width="1042" height="767" viewBox="0 0 1042 767" fill="none" xmlns="http://www.w3.org/2000/svg">
<g filter="url(#filter0_d_161_511)">
<rect x="117.907" y="67.8716" width="898.093" height="669.128" rx="15" fill="#7DB9B6" fill-opacity="0.42" shape-rendering="crispEdges"/>
</g>
<g filter="url(#filter1_d_161_511)">
<rect x="71.9536" y="22" width="898.093" height="669.128" rx="15" fill="#7DB9B6"/>
</g>
<path d="M139.885 301.219H822.199" stroke="#F5E9CF" stroke-width="20" stroke-linecap="round"/>
<path d="M139.885 351.08H578.443" stroke="#F5E9CF" stroke-width="20" stroke-linecap="round"/>
<path d="M139.885 400.94H822.199" stroke="#F5E9CF" stroke-width="20" stroke-linecap="round"/>
<g clip-path="url(#clip0_161_511)" filter="url(#filter2_d_161_511)">
<g filter="url(#filter3_d_161_511)">
<path fill-rule="evenodd" clip-rule="evenodd" d="M905.861 607.944H963.303C973.878 607.944 982.451 616.502 982.451 627.057V684.397C982.451 694.953 973.878 703.51 963.303 703.51H905.861C895.286 703.51 886.714 694.953 886.714 684.397V627.057C886.714 616.502 895.286 607.944 905.861 607.944ZM934.582 633.03C936.565 633.03 938.172 634.635 938.172 636.614V652.144H953.73C955.712 652.144 957.32 653.748 957.32 655.727C957.32 657.707 955.712 659.311 953.73 659.311H938.172V674.841C938.172 676.82 936.565 678.424 934.582 678.424C932.599 678.424 930.992 676.82 930.992 674.841V659.311H915.435C913.452 659.311 911.845 657.707 911.845 655.727C911.845 653.748 913.452 652.144 915.435 652.144H930.992V636.614C930.992 634.635 932.599 633.03 934.582 633.03Z" fill="#F5E9CF"/>
</g>
</g>
<path d="M335.687 507.642C335.687 499.931 341.949 493.681 349.673 493.681H433.588C441.313 493.681 447.574 499.931 447.574 507.642V577.446C447.574 585.157 441.313 591.407 433.588 591.407H349.673C341.949 591.407 335.687 585.157 335.687 577.446V507.642ZM342.68 570.466V577.446C342.68 581.302 345.811 584.427 349.673 584.427H433.588C437.45 584.427 440.581 581.302 440.581 577.446V553.015L414.173 539.422C412.827 538.75 411.201 539.014 410.137 540.076C409.073 541.138 384.192 565.975 384.192 565.975L365.598 553.601C364.212 552.678 362.365 552.861 361.187 554.037L342.68 570.466ZM377.645 525.093C377.645 519.31 372.949 514.622 367.155 514.622C361.362 514.622 356.666 519.31 356.666 525.093C356.666 530.876 361.362 535.564 367.155 535.564C372.949 535.564 377.645 530.876 377.645 525.093Z" fill="#F5E9CF"/>
<g filter="url(#filter4_d_161_511)">
<rect x="26" y="77.8438" width="527.467" height="127.965" rx="15" fill="#7DB9B6"/>
</g>
<path d="M106.392 179.981C127.155 179.981 143.986 162.898 143.986 141.826C143.986 120.754 127.155 103.671 106.392 103.671C85.6301 103.671 68.7988 120.754 68.7988 141.826C68.7988 162.898 85.6301 179.981 106.392 179.981Z" fill="#F5E9CF"/>
<path d="M122.998 145.703C125.92 144.013 125.92 139.639 122.998 137.95L97.6849 123.313C94.845 121.671 91.3549 123.808 91.3549 127.19V156.462C91.3549 159.844 94.845 161.981 97.6849 160.339L122.998 145.703Z" fill="#7DB9B6"/>
<path d="M187.942 116.585V169.415" stroke="#F5E9CF" stroke-width="10" stroke-linecap="round"/>
<path d="M410.033 135.369V150.631" stroke="#F5E9CF" stroke-width="10" stroke-linecap="round"/>
<path d="M484.064 129.499V155.327" stroke="#F5E9CF" stroke-width="10" stroke-linecap="round"/>
<path d="M447.048 122.455V163.545" stroke="#F5E9CF" stroke-width="10" stroke-linecap="round"/>
<path d="M206.449 128.325V156.501" stroke="#F5E9CF" stroke-width="10" stroke-linecap="round"/>
<path d="M354.51 117.759V167.067" stroke="#F5E9CF" stroke-width="10" stroke-linecap="round"/>
<path d="M317.495 133.021V151.805" stroke="#F5E9CF" stroke-width="10" stroke-linecap="round"/>
<path d="M280.48 107.194V177.633" stroke="#F5E9CF" stroke-width="10" stroke-linecap="round"/>
<path d="M243.465 110.716V174.111" stroke="#F5E9CF" stroke-width="10" stroke-linecap="round"/>
<path d="M502.571 109.542V175.285" stroke="#F5E9CF" stroke-width="10" stroke-linecap="round"/>
<path d="M465.556 114.237V171.763" stroke="#F5E9CF" stroke-width="10" stroke-linecap="round"/>
<path d="M428.541 111.889V174.111" stroke="#F5E9CF" stroke-width="10" stroke-linecap="round"/>
<path d="M391.525 125.977V158.849" stroke="#F5E9CF" stroke-width="10" stroke-linecap="round"/>
<path d="M373.018 111.889V174.111" stroke="#F5E9CF" stroke-width="10" stroke-linecap="round"/>
<path d="M261.972 123.629V161.197" stroke="#F5E9CF" stroke-width="10" stroke-linecap="round"/>
<path d="M298.987 133.021V152.979" stroke="#F5E9CF" stroke-width="10" stroke-linecap="round"/>
<path d="M336.003 124.803V161.197" stroke="#F5E9CF" stroke-width="10" stroke-linecap="round"/>
<path d="M224.957 98.9756V185.851" stroke="#F5E9CF" stroke-width="10" stroke-linecap="round"/>
<defs>
<filter id="filter0_d_161_511" x="91.9072" y="45.8716" width="950.093" height="721.128" filterUnits="userSpaceOnUse" color-interpolation-filters="sRGB">
<feFlood flood-opacity="0" result="BackgroundImageFix"/>
<feColorMatrix in="SourceAlpha" type="matrix" values="0 0 0 0 0 0 0 0 0 0 0 0 0 0 0 0 0 0 127 0" result="hardAlpha"/>
<feMorphology radius="3" operator="dilate" in="SourceAlpha" result="effect1_dropShadow_161_511"/>
<feOffset dy="4"/>
<feGaussianBlur stdDeviation="11.5"/>
<feComposite in2="hardAlpha" operator="out"/>
<feColorMatrix type="matrix" values="0 0 0 0 0 0 0 0 0 0 0 0 0 0 0 0 0 0 0.25 0"/>
<feBlend mode="normal" in2="BackgroundImageFix" result="effect1_dropShadow_161_511"/>
<feBlend mode="normal" in="SourceGraphic" in2="effect1_dropShadow_161_511" result="shape"/>
</filter>
<filter id="filter1_d_161_511" x="45.9536" y="0" width="950.093" height="721.128" filterUnits="userSpaceOnUse" color-interpolation-filters="sRGB">
<feFlood flood-opacity="0" result="BackgroundImageFix"/>
<feColorMatrix in="SourceAlpha" type="matrix" values="0 0 0 0 0 0 0 0 0 0 0 0 0 0 0 0 0 0 127 0" result="hardAlpha"/>
<feMorphology radius="3" operator="dilate" in="SourceAlpha" result="effect1_dropShadow_161_511"/>
<feOffset dy="4"/>
<feGaussianBlur stdDeviation="11.5"/>
<feComposite in2="hardAlpha" operator="out"/>
<feColorMatrix type="matrix" values="0 0 0 0 0 0 0 0 0 0 0 0 0 0 0 0 0 0 0.25 0"/>
<feBlend mode="normal" in2="BackgroundImageFix" result="effect1_dropShadow_161_511"/>
<feBlend mode="normal" in="SourceGraphic" in2="effect1_dropShadow_161_511" result="shape"/>
</filter>
<filter id="filter2_d_161_511" x="873.14" y="598.388" width="122.884" height="122.679" filterUnits="userSpaceOnUse" color-interpolation-filters="sRGB">
<feFlood flood-opacity="0" result="BackgroundImageFix"/>
<feColorMatrix in="SourceAlpha" type="matrix" values="0 0 0 0 0 0 0 0 0 0 0 0 0 0 0 0 0 0 127 0" result="hardAlpha"/>
<feOffset dy="4"/>
<feGaussianBlur stdDeviation="2"/>
<feComposite in2="hardAlpha" operator="out"/>
<feColorMatrix type="matrix" values="0 0 0 0 0 0 0 0 0 0 0 0 0 0 0 0 0 0 0.25 0"/>
<feBlend mode="normal" in2="BackgroundImageFix" result="effect1_dropShadow_161_511"/>
<feBlend mode="normal" in="SourceGraphic" in2="effect1_dropShadow_161_511" result="shape"/>
</filter>
<filter id="filter3_d_161_511" x="863.714" y="588.944" width="141.737" height="141.566" filterUnits="userSpaceOnUse" color-interpolation-filters="sRGB">
<feFlood flood-opacity="0" result="BackgroundImageFix"/>
<feColorMatrix in="SourceAlpha" type="matrix" values="0 0 0 0 0 0 0 0 0 0 0 0 0 0 0 0 0 0 127 0" result="hardAlpha"/>
<feOffset dy="4"/>
<feGaussianBlur stdDeviation="11.5"/>
<feComposite in2="hardAlpha" operator="out"/>
<feColorMatrix type="matrix" values="0 0 0 0 0 0 0 0 0 0 0 0 0 0 0 0 0 0 0.25 0"/>
<feBlend mode="normal" in2="BackgroundImageFix" result="effect1_dropShadow_161_511"/>
<feBlend mode="normal" in="SourceGraphic" in2="effect1_dropShadow_161_511" result="shape"/>
</filter>
<filter id="filter4_d_161_511" x="0" y="55.8438" width="579.467" height="179.965" filterUnits="userSpaceOnUse" color-interpolation-filters="sRGB">
<feFlood flood-opacity="0" result="BackgroundImageFix"/>
<feColorMatrix in="SourceAlpha" type="matrix" values="0 0 0 0 0 0 0 0 0 0 0 0 0 0 0 0 0 0 127 0" result="hardAlpha"/>
<feMorphology radius="3" operator="dilate" in="SourceAlpha" result="effect1_dropShadow_161_511"/>
<feOffset dy="4"/>
<feGaussianBlur stdDeviation="11.5"/>
<feComposite in2="hardAlpha" operator="out"/>
<feColorMatrix type="matrix" values="0 0 0 0 0 0 0 0 0 0 0 0 0 0 0 0 0 0 0.25 0"/>
<feBlend mode="normal" in2="BackgroundImageFix" result="effect1_dropShadow_161_511"/>
<feBlend mode="normal" in="SourceGraphic" in2="effect1_dropShadow_161_511" result="shape"/>
</filter>
<clipPath id="clip0_161_511">
<rect width="114.884" height="114.679" fill="white" transform="translate(877.14 598.388)"/>
</clipPath>
</defs>
</svg>
