<svg width="1042" height="767" viewBox="0 0 1042 767" fill="none" xmlns="http://www.w3.org/2000/svg">
<g filter="url(#filter0_d_2014_52)">
<rect width="951.272" height="677.73" rx="15" transform="matrix(1 0 -0.000108617 1 64.7275 59.2701)" fill="#F5E9CF" fill-opacity="0.42" shape-rendering="crispEdges"/>
</g>
<g filter="url(#filter1_d_2014_52)">
<rect width="951.272" height="677.73" rx="15" transform="matrix(1 0 0.000103617 1 26 22)" fill="#F5E9CF"/>
</g>
<g filter="url(#filter2_d_2014_52)">
<rect width="121.687" height="116.153" rx="12" transform="matrix(1 -2.60047e-09 0.000108613 1 440.801 91.6921)" fill="#7DB9B6"/>
<path d="M501.424 150.274L497.674 150.274C497.674 151.887 498.706 153.319 500.236 153.831L501.424 150.274ZM505.172 132.093C505.172 130.022 503.493 128.343 501.421 128.343C499.35 128.343 497.672 130.022 497.672 132.093L505.172 132.093ZM511.12 157.467C513.085 158.123 515.209 157.063 515.865 155.098C516.521 153.134 515.46 151.01 513.496 150.353L511.12 157.467ZM501.424 150.274L505.174 150.274L505.172 132.093L501.422 132.093L497.672 132.093L497.674 150.274L501.424 150.274ZM501.424 150.274L500.236 153.831L511.12 157.467L512.308 153.91L513.496 150.353L502.612 146.717L501.424 150.274ZM537.703 150.274L533.953 150.274C533.955 168.292 519.385 182.885 501.427 182.885L501.428 186.635L501.428 190.385C523.544 190.385 541.456 172.419 541.453 150.274L537.703 150.274ZM501.428 186.635L501.427 182.885C483.47 182.885 468.897 168.292 468.895 150.274L465.145 150.274L461.395 150.274C461.397 172.419 479.313 190.385 501.428 190.385L501.428 186.635ZM465.145 150.274L468.895 150.274C468.893 132.255 483.463 117.663 501.42 117.663L501.42 113.913L501.42 110.163C479.304 110.163 461.392 128.129 461.395 150.274L465.145 150.274ZM501.42 113.913L501.42 117.663C519.378 117.663 533.951 132.255 533.953 150.274L537.703 150.274L541.453 150.274C541.451 128.129 523.535 110.163 501.42 110.163L501.42 113.913Z" fill="#F5E9CF"/>
</g>
<rect width="121.687" height="116.153" rx="12" transform="matrix(1 -2.60047e-09 0.000108613 1 121.267 333.089)" fill="#7DB9B6"/>
<path d="M876.788 391.671L300.099 391.671" stroke="#7DB9B6" stroke-width="20" stroke-linecap="round"/>
<rect width="121.687" height="116.153" rx="12" transform="matrix(1 -2.60047e-09 0.000108613 1 121.282 474.493)" fill="#7DB9B6"/>
<path d="M876.804 533.075L300.115 533.075" stroke="#7DB9B6" stroke-width="20" stroke-linecap="round"/>
<path d="M369.923 260.33L369.919 227.036" stroke="#7DB9B6" stroke-width="10" stroke-linecap="round"/>
<path d="M399.55 252.287L399.548 239.156" stroke="#7DB9B6" stroke-width="5" stroke-linecap="round"/>
<path d="M423.889 261.377L423.887 248.246" stroke="#7DB9B6" stroke-width="5" stroke-linecap="round"/>
<path d="M604.83 254.307L604.829 241.177" stroke="#7DB9B6" stroke-width="5" stroke-linecap="round"/>
<path d="M448.227 267.437L448.225 254.307" stroke="#7DB9B6" stroke-width="5" stroke-linecap="round"/>
<path d="M580.494 262.387L580.493 249.257" stroke="#7DB9B6" stroke-width="5" stroke-linecap="round"/>
<path d="M556.157 267.437L556.156 254.307" stroke="#7DB9B6" stroke-width="5" stroke-linecap="round"/>
<path d="M531.82 271.477L531.819 258.347" stroke="#7DB9B6" stroke-width="5" stroke-linecap="round"/>
<path d="M472.564 271.477L472.563 258.347" stroke="#7DB9B6" stroke-width="5" stroke-linecap="round"/>
<path d="M502.194 295.681L502.191 262.387" stroke="#7DB9B6" stroke-width="10" stroke-linecap="round"/>
<path d="M634.459 260.33L634.455 227.036" stroke="#7DB9B6" stroke-width="10" stroke-linecap="round"/>
<path d="M372.241 283.761C371.291 282.197 368.834 282.197 367.885 283.761L359.662 297.313C358.74 298.833 359.941 300.701 361.841 300.701L378.288 300.701C380.188 300.701 381.389 298.833 380.466 297.313L372.241 283.761Z" fill="#7DB9B6"/>
<path d="M496.571 235.834L496.571 231.05L504.579 231.05L504.581 250.056L499.251 250.056L499.249 235.834L496.571 235.834Z" fill="#7DB9B6"/>
<path d="M361.329 201.869C361.329 198.888 361.935 196.539 363.148 194.823C364.361 193.107 366.268 192.249 368.868 192.249C371.468 192.249 373.375 193.107 374.588 194.823C375.819 196.539 376.435 198.888 376.435 201.869C376.435 204.885 375.829 207.251 374.616 208.967C373.403 210.683 371.487 211.541 368.87 211.541C366.253 211.541 364.337 210.683 363.124 208.967C361.927 207.251 361.329 204.885 361.329 201.869ZM371.391 201.869C371.391 200.309 371.226 199.122 370.897 198.307C370.567 197.475 369.891 197.059 368.868 197.059C367.846 197.059 367.17 197.475 366.841 198.307C366.511 199.122 366.347 200.309 366.347 201.869C366.347 203.464 366.503 204.677 366.815 205.509C367.145 206.324 367.829 206.731 368.869 206.731C369.909 206.731 370.585 206.324 370.897 205.509C371.227 204.677 371.391 203.464 371.391 201.869Z" fill="#7DB9B6"/>
<path d="M627.91 207.563C629.591 206.246 630.969 205.11 632.043 204.157C633.118 203.204 634.019 202.224 634.747 201.219C635.475 200.196 635.839 199.226 635.839 198.307C635.839 197.752 635.709 197.319 635.449 197.007C635.206 196.695 634.842 196.539 634.357 196.539C633.854 196.539 633.464 196.756 633.187 197.189C632.909 197.605 632.779 198.22 632.797 199.035L627.857 199.035C627.909 197.492 628.247 196.218 628.87 195.213C629.494 194.19 630.309 193.445 631.314 192.977C632.32 192.492 633.438 192.249 634.668 192.249C636.8 192.249 638.386 192.778 639.426 193.835C640.466 194.892 640.987 196.262 640.987 197.943C640.987 199.746 640.381 201.436 639.167 203.013C637.972 204.59 636.472 206.003 634.67 207.251L641.17 207.251L641.17 211.385L627.91 211.385L627.91 207.563Z" fill="#7DB9B6"/>
<defs>
<filter id="filter0_d_2014_52" x="38.6553" y="37.2701" width="1003.34" height="729.73" filterUnits="userSpaceOnUse" color-interpolation-filters="sRGB">
<feFlood flood-opacity="0" result="BackgroundImageFix"/>
<feColorMatrix in="SourceAlpha" type="matrix" values="0 0 0 0 0 0 0 0 0 0 0 0 0 0 0 0 0 0 127 0" result="hardAlpha"/>
<feMorphology radius="3" operator="dilate" in="SourceAlpha" result="effect1_dropShadow_2014_52"/>
<feOffset dy="4"/>
<feGaussianBlur stdDeviation="11.5"/>
<feComposite in2="hardAlpha" operator="out"/>
<feColorMatrix type="matrix" values="0 0 0 0 0 0 0 0 0 0 0 0 0 0 0 0 0 0 0.25 0"/>
<feBlend mode="normal" in2="BackgroundImageFix" result="effect1_dropShadow_2014_52"/>
<feBlend mode="normal" in="SourceGraphic" in2="effect1_dropShadow_2014_52" result="shape"/>
</filter>
<filter id="filter1_d_2014_52" x="0.00195312" y="0" width="1003.34" height="729.73" filterUnits="userSpaceOnUse" color-interpolation-filters="sRGB">
<feFlood flood-opacity="0" result="BackgroundImageFix"/>
<feColorMatrix in="SourceAlpha" type="matrix" values="0 0 0 0 0 0 0 0 0 0 0 0 0 0 0 0 0 0 127 0" result="hardAlpha"/>
<feMorphology radius="3" operator="dilate" in="SourceAlpha" result="effect1_dropShadow_2014_52"/>
<feOffset dy="4"/>
<feGaussianBlur stdDeviation="11.5"/>
<feComposite in2="hardAlpha" operator="out"/>
<feColorMatrix type="matrix" values="0 0 0 0 0 0 0 0 0 0 0 0 0 0 0 0 0 0 0.25 0"/>
<feBlend mode="normal" in2="BackgroundImageFix" result="effect1_dropShadow_2014_52"/>
<feBlend mode="normal" in="SourceGraphic" in2="effect1_dropShadow_2014_52" result="shape"/>
</filter>
<filter id="filter2_d_2014_52" x="413.802" y="68.6921" width="175.697" height="170.153" filterUnits="userSpaceOnUse" color-interpolation-filters="sRGB">
<feFlood flood-opacity="0" result="BackgroundImageFix"/>
<feColorMatrix in="SourceAlpha" type="matrix" values="0 0 0 0 0 0 0 0 0 0 0 0 0 0 0 0 0 0 127 0" result="hardAlpha"/>
<feOffset dy="4"/>
<feGaussianBlur stdDeviation="13.5"/>
<feComposite in2="hardAlpha" operator="out"/>
<feColorMatrix type="matrix" values="0 0 0 0 0 0 0 0 0 0 0 0 0 0 0 0 0 0 0.25 0"/>
<feBlend mode="normal" in2="BackgroundImageFix" result="effect1_dropShadow_2014_52"/>
<feBlend mode="normal" in="SourceGraphic" in2="effect1_dropShadow_2014_52" result="shape"/>
</filter>
</defs>
</svg>
