<svg width="1042" height="745" viewBox="0 0 1042 745" fill="none" xmlns="http://www.w3.org/2000/svg">
<g filter="url(#filter0_d_161_577)">
<rect x="26" y="87.6562" width="990" height="627.344" rx="15" fill="#44656B"/>
</g>
<g filter="url(#filter1_d_161_577)">
<rect x="66.7646" y="113.438" width="908.471" height="575.781" rx="15" fill="#7DB9B6"/>
</g>
<path d="M257.532 263.197H920.564" stroke="#F5E9CF" stroke-width="20" stroke-linecap="round"/>
<path d="M257.532 293.197H768.184" stroke="#F5E9CF" stroke-width="20" stroke-linecap="round"/>
<path d="M155.333 278L165.894 287.505C167.692 289.123 170.486 288.875 171.971 286.966L188.667 265.5M197 236.333H147C137.795 236.333 130.333 243.795 130.333 253V303C130.333 312.205 137.795 319.667 147 319.667H197C206.205 319.667 213.667 312.205 213.667 303V253C213.667 243.795 206.205 236.333 197 236.333Z" stroke="#F5E9CF" stroke-width="10" stroke-linecap="round" stroke-linejoin="round"/>
<path d="M257.532 393.197H920.564" stroke="#F5E9CF" stroke-width="20" stroke-linecap="round"/>
<path d="M257.532 423.197H768.184" stroke="#F5E9CF" stroke-width="20" stroke-linecap="round"/>
<path d="M155.333 408L165.894 417.505C167.692 419.123 170.486 418.875 171.971 416.966L188.667 395.5M197 366.333H147C137.795 366.333 130.333 373.795 130.333 383V433C130.333 442.205 137.795 449.667 147 449.667H197C206.205 449.667 213.667 442.205 213.667 433V383C213.667 373.795 206.205 366.333 197 366.333Z" stroke="#F5E9CF" stroke-width="10" stroke-linecap="round" stroke-linejoin="round"/>
<path d="M257.532 523.197H920.564" stroke="#F5E9CF" stroke-width="20" stroke-linecap="round"/>
<path d="M257.532 553.197H768.184" stroke="#F5E9CF" stroke-width="20" stroke-linecap="round"/>
<path d="M155.333 538L165.894 547.505C167.692 549.123 170.486 548.875 171.971 546.966L188.667 525.5M197 496.333H147C137.795 496.333 130.333 503.795 130.333 513V563C130.333 572.205 137.795 579.667 147 579.667H197C206.205 579.667 213.667 572.205 213.667 563V513C213.667 503.795 206.205 496.333 197 496.333Z" stroke="#F5E9CF" stroke-width="10" stroke-linecap="round" stroke-linejoin="round"/>
<rect x="364" y="66" width="316" height="78" rx="30" fill="#F5E9CF"/>
<path d="M521.5 13.5C547.944 13.5 563.5 29.8096 563.5 43.5C563.5 57.1904 547.944 73.5 521.5 73.5C495.056 73.5 479.5 57.1904 479.5 43.5C479.5 29.8096 495.056 13.5 521.5 13.5Z" stroke="#F5E9CF" stroke-width="27"/>
<defs>
<filter id="filter0_d_161_577" x="0" y="65.6562" width="1042" height="679.344" filterUnits="userSpaceOnUse" color-interpolation-filters="sRGB">
<feFlood flood-opacity="0" result="BackgroundImageFix"/>
<feColorMatrix in="SourceAlpha" type="matrix" values="0 0 0 0 0 0 0 0 0 0 0 0 0 0 0 0 0 0 127 0" result="hardAlpha"/>
<feMorphology radius="3" operator="dilate" in="SourceAlpha" result="effect1_dropShadow_161_577"/>
<feOffset dy="4"/>
<feGaussianBlur stdDeviation="11.5"/>
<feComposite in2="hardAlpha" operator="out"/>
<feColorMatrix type="matrix" values="0 0 0 0 0 0 0 0 0 0 0 0 0 0 0 0 0 0 0.25 0"/>
<feBlend mode="normal" in2="BackgroundImageFix" result="effect1_dropShadow_161_577"/>
<feBlend mode="normal" in="SourceGraphic" in2="effect1_dropShadow_161_577" result="shape"/>
</filter>
<filter id="filter1_d_161_577" x="40.7646" y="91.4375" width="960.471" height="627.781" filterUnits="userSpaceOnUse" color-interpolation-filters="sRGB">
<feFlood flood-opacity="0" result="BackgroundImageFix"/>
<feColorMatrix in="SourceAlpha" type="matrix" values="0 0 0 0 0 0 0 0 0 0 0 0 0 0 0 0 0 0 127 0" result="hardAlpha"/>
<feMorphology radius="3" operator="dilate" in="SourceAlpha" result="effect1_dropShadow_161_577"/>
<feOffset dy="4"/>
<feGaussianBlur stdDeviation="11.5"/>
<feComposite in2="hardAlpha" operator="out"/>
<feColorMatrix type="matrix" values="0 0 0 0 0 0 0 0 0 0 0 0 0 0 0 0 0 0 0.25 0"/>
<feBlend mode="normal" in2="BackgroundImageFix" result="effect1_dropShadow_161_577"/>
<feBlend mode="normal" in="SourceGraphic" in2="effect1_dropShadow_161_577" result="shape"/>
</filter>
</defs>
</svg>
