<svg width="1706" height="89" viewBox="0 0 1706 89" fill="none" xmlns="http://www.w3.org/2000/svg">
<path d="M58 38.2456C54.6863 38.2456 52 40.9319 52 44.2456C52 47.5593 54.6863 50.2456 58 50.2456V38.2456ZM1704.24 48.4882C1706.59 46.1451 1706.59 42.3461 1704.24 40.003L1666.06 1.8192C1663.72 -0.523949 1659.92 -0.523949 1657.57 1.8192C1655.23 4.16235 1655.23 7.96133 1657.57 10.3045L1691.51 44.2456L1657.57 78.1867C1655.23 80.5299 1655.23 84.3289 1657.57 86.672C1659.92 89.0152 1663.72 89.0152 1666.06 86.672L1704.24 48.4882ZM58 50.2456H1700V38.2456H58V50.2456Z" fill="#F5E9CF"/>
<circle cx="455" cy="44" r="35" fill="#F5E9CF"/>
<circle cx="455" cy="44" r="23" fill="#1B2735"/>
<circle cx="875" cy="44" r="35" fill="#F5E9CF"/>
<circle cx="875" cy="44" r="23" fill="#1B2735"/>
<circle cx="1295" cy="44" r="35" fill="#F5E9CF"/>
<circle cx="1295" cy="44" r="23" fill="#1B2735"/>
<circle cx="35" cy="44" r="35" fill="#F5E9CF"/>
<circle cx="35" cy="44" r="23" fill="#1B2735"/>
</svg>
